<svg width="24" height="24" viewBox="0 0 24 24" fill="none" xmlns="http://www.w3.org/2000/svg">
<path d="M9.44992 11.0649V16.3348C9.44992 17.3617 11.15 17.3617 11.15 16.3348V11.0649C11.15 10.0381 9.44992 10.0381 9.44992 11.0649Z" fill="#4D5061"/>
<path d="M12.85 16.3348V11.0649C12.85 10.0381 14.5501 10.0381 14.5501 11.0649V16.3348C14.5501 17.3617 12.85 17.3617 12.85 16.3348Z" fill="#4D5061"/>
<path fill-rule="evenodd" clip-rule="evenodd" d="M8.59989 4.94501V6.90019H5.11508C4.19241 6.90019 3.90293 8.59989 5.28516 8.59989L5.68661 13.8085C5.72982 14.1365 5.74295 14.4438 5.75618 14.7533C5.76736 15.015 5.77861 15.2783 5.80814 15.5571C5.83283 15.7914 5.8554 16.0963 5.88006 16.4294C5.94637 17.3252 6.02775 18.4245 6.2057 18.8995C6.49944 19.6832 7.36896 20.5 8.43017 20.5H15.5699C16.5956 20.5 17.4843 19.6765 17.7709 18.9611C17.9759 18.4496 18.0358 17.5407 18.09 16.7184C18.1165 16.3166 18.1416 15.9355 18.1816 15.6315C18.2246 15.3033 18.2378 14.9959 18.251 14.6861C18.2622 14.4247 18.2734 14.1615 18.3028 13.8829L18.7149 8.59989C20.0971 8.59989 19.8076 6.90019 18.8849 6.90019H15.4001V4.94501C15.4001 4.3221 14.5781 3.50006 13.9548 3.50006H10.0452C9.42193 3.50006 8.59989 4.3221 8.59989 4.94501ZM6.98522 8.59989H17.0148L16.5283 14.1483C16.4969 14.3871 16.4602 14.9364 16.4185 15.5606C16.3442 16.6709 16.2541 18.0181 16.1502 18.2755C16.0163 18.6075 15.6336 18.7999 15.145 18.7999H8.85501C7.80784 18.7999 7.76752 18.1312 7.72555 17.4352C7.71657 17.2864 7.70753 17.1364 7.68856 16.9914L7.23998 11.4051C7.22512 10.9346 7.16452 10.4205 7.10593 9.92343C7.05002 9.44905 6.99595 8.99025 6.98522 8.59989ZM10.3 5.20012H13.7001V6.90019H10.3V5.20012Z" fill="#4D5061"/>
</svg>
