<svg width="26" height="26" viewBox="0 0 26 26" fill="none" xmlns="http://www.w3.org/2000/svg">
<path fill-rule="evenodd" clip-rule="evenodd" d="M5.9557 11.196C5.9557 9.70661 6.57753 8.35371 7.56224 7.36862C9.19788 5.73298 11.4149 5.37047 13.6183 6.2501C13.8946 6.36047 14.2564 6.58766 14.4828 6.74415C15.2585 7.27979 15.934 8.08911 16.3422 8.96004C17.9008 12.2831 15.4864 16.6295 11.3896 16.6295C9.88624 16.6295 8.55149 16.0118 7.56224 15.0229C6.57488 14.0356 5.9557 12.6105 5.9557 11.1956V11.196ZM4.14467 10.8334C4.14467 13.168 4.75288 14.8396 6.20406 16.2911C7.1332 17.2203 9.04857 18.4412 10.8464 18.4412C12.71 18.4412 13.283 18.4091 14.9829 17.5061C15.2955 17.3397 15.5526 17.0653 15.8274 16.992L19.7893 20.9085C20.2535 21.3723 21.0866 22.5479 21.9496 21.8463C22.3 21.5617 22.2573 21.2892 22.2573 20.9766C22.2573 20.3823 17.7896 16.5353 17.1856 15.633C17.358 15.3076 17.5209 15.1238 17.6997 14.7886C19.2669 11.8507 18.8832 8.40815 16.5759 6.09965C16.0568 5.58026 15.2902 4.95806 14.5735 4.66019C12.293 3.71101 10.5708 3.67434 8.26987 4.63449C6.01883 5.57422 4.14429 8.33746 4.14429 10.8331L4.14467 10.8334Z" fill="#044E62"/>
</svg>
